<svg height="680" version="1.1" width="1150" xmlns="http://www.w3.org/2000/svg" stroke="#ed1f3a" fill="none">
    <rect x="0" y="0" width="1150" height="680" fill="#f5f5f5" stroke="none"/>
    <ellipse cx="833" cy="456" rx="114" ry="161" transform="matrix(1,0,0,1,0,0)"/>
    <ellipse cx="956" cy="328" rx="127" ry="180" transform="matrix(0.98,0.19,-0.19,0.98,82.35,-180.20)"/>
    <ellipse cx="425" cy="239" rx="95" ry="134" transform="matrix(0.92,0.38,-0.38,0.92,123.81,-144.44)"/>
    <ellipse cx="186" cy="259" rx="27" ry="38" transform="matrix(0.83,0.55,-0.55,0.83,175.23,-59.68)"/>
    <ellipse cx="541" cy="338" rx="81" ry="115" transform="matrix(0.70,0.70,-0.70,0.70,397.45,-283.54)"/>
    <ellipse cx="413" cy="336" rx="124" ry="176" transform="matrix(0.55,0.83,-0.83,0.55,462.92,-194.06)"/>
    <ellipse cx="138" cy="450" rx="28" ry="39" transform="matrix(0.38,0.92,-0.92,0.38,500.93,150.29)"/>
    <ellipse cx="1007" cy="290" rx="37" ry="52" transform="matrix(0.19,0.98,-0.98,0.19,1094.97,-754.22)"/>
    <ellipse cx="894" cy="286" rx="78" ry="110" transform="matrix(0,1,-1,0,1180,-608)"/>
    <ellipse cx="210" cy="423" rx="126" ry="178" transform="matrix(-0.19,0.98,-0.98,-0.19,665.84,299.55)"/>
    <ellipse cx="212" cy="276" rx="93" ry="132" transform="matrix(-0.38,0.92,-0.92,-0.38,548.11,185.75)"/>
    <ellipse cx="352" cy="471" rx="28" ry="39" transform="matrix(-0.55,0.83,-0.83,-0.55,939.18,439.99)"/>
    <ellipse cx="904" cy="502" rx="30" ry="42" transform="matrix(-0.70,0.70,-0.70,-0.70,1898.19,217.74)"/>
    <ellipse cx="595" cy="256" rx="70" ry="99" transform="matrix(-0.83,0.55,-0.55,-0.83,1231.95,138.29)"/>
    <ellipse cx="156" cy="144" rx="99" ry="140" transform="matrix(-0.92,0.38,-0.38,-0.92,355.23,217.34)"/>
    <ellipse cx="755" cy="460" rx="20" ry="28" transform="matrix(-0.98,0.19,-0.19,-0.98,1585.23,763.86)"/>
    <ellipse cx="963" cy="512" rx="122" ry="173" transform="matrix(-1,0,0,-1,1926,1024)"/>
    <ellipse cx="219" cy="462" rx="97" ry="137" transform="matrix(-0.98,-0.19,0.19,-0.98,343.66,957.84)"/>
    <ellipse cx="279" cy="400" rx="39" ry="55" transform="matrix(-0.92,-0.38,0.38,-0.92,383.68,876.32)"/>
    <ellipse cx="368" cy="463" rx="109" ry="154" transform="matrix(-0.83,-0.55,0.55,-0.83,416.75,1052.42)"/>
    <ellipse cx="1015" cy="430" rx="89" ry="126" transform="matrix(-0.70,-0.70,0.70,-0.70,1428.65,1451.7)"/>
    <ellipse cx="305" cy="260" rx="112" ry="159" transform="matrix(-0.55,-0.83,0.83,-0.55,258.26,658.04)"/>
    <ellipse cx="262" cy="211" rx="51" ry="72" transform="matrix(-0.38,-0.92,0.92,-0.38,167.32,533.80)"/>
    <ellipse cx="249" cy="121" rx="66" ry="93" transform="matrix(-0.19,-0.98,0.98,-0.19,178.90,388.82)"/>
    <ellipse cx="730" cy="541" rx="85" ry="120" transform="matrix(0,-1,1,0,189,1271)"/>
    <ellipse cx="967" cy="502" rx="127" ry="180" transform="matrix(0.19,-0.98,0.98,0.19,285.99,1352.48)"/>
    <ellipse cx="435" cy="376" rx="39" ry="55" transform="matrix(0.38,-0.92,0.92,0.38,-78.84,633.99)"/>
    <ellipse cx="715" cy="392" rx="123" ry="174" transform="matrix(0.55,-0.83,0.83,0.55,-8.16,768.71)"/>
    <ellipse cx="123" cy="276" rx="49" ry="69" transform="matrix(0.70,-0.70,0.70,0.70,-159.13,167.81)"/>
    <ellipse cx="362" cy="268" rx="130" ry="184" transform="matrix(0.83,-0.55,0.55,0.83,-87.88,246.28)"/>
    <ellipse cx="606" cy="506" rx="55" ry="78" transform="matrix(0.92,-0.38,0.38,0.92,-147.50,270.42)"/>
    <ellipse cx="529" cy="393" rx="92" ry="130" transform="matrix(0.98,-0.19,0.19,0.98,-66.50,110.75)"/>
</svg>